<svg xmlns="http://www.w3.org/2000/svg" version="1.1" xmlns:xlink="http://www.w3.org/1999/xlink" viewBox="0 0 200 200"><rect width="200" height="200" fill="url('#gradient')"></rect><defs><linearGradient id="gradient" gradientTransform="rotate(45 0.5 0.5)"><stop offset="0%" stop-color="#2c5f6f"></stop><stop offset="100%" stop-color="#8fa983"></stop></linearGradient></defs><g><g fill="#ffffff" transform="matrix(1.6321615159833525,0,0,1.6321615159833525,8.977748668458773,111.60088228168114)" stroke="#2c5f6f" stroke-width="0.65"><path d="M8.41-3.78L8.41-3.78Q8.41-4.53 7.88-4.95Q7.34-5.37 6.01-5.82Q4.67-6.27 3.82-6.69L3.82-6.69Q1.05-8.05 1.05-10.42L1.05-10.42Q1.05-11.60 1.74-12.50Q2.43-13.41 3.69-13.91Q4.95-14.41 6.52-14.41L6.52-14.41Q8.06-14.41 9.27-13.87Q10.49-13.32 11.16-12.31Q11.84-11.30 11.84-10L11.84-10L8.42-10Q8.42-10.87 7.89-11.35Q7.35-11.83 6.45-11.83L6.45-11.83Q5.53-11.83 5.00-11.42Q4.46-11.02 4.46-10.39L4.46-10.39Q4.46-9.84 5.05-9.40Q5.63-8.96 7.11-8.48Q8.58-8.01 9.53-7.46L9.53-7.46Q11.84-6.13 11.84-3.80L11.84-3.80Q11.84-1.93 10.43-0.87Q9.02 0.20 6.57 0.20L6.57 0.20Q4.84 0.20 3.44-0.42Q2.04-1.04 1.33-2.12Q0.63-3.20 0.63-4.61L0.63-4.61L4.06-4.61Q4.06-3.47 4.65-2.92Q5.24-2.38 6.57-2.38L6.57-2.38Q7.42-2.38 7.92-2.75Q8.41-3.12 8.41-3.78ZM22.50 0L21.67-2.66L16.97-2.66L16.15 0L12.49 0L17.71-14.22L20.93-14.22L26.18 0L22.50 0ZM19.32-10.23L17.79-5.30L20.85-5.30L19.32-10.23ZM27.22-14.22L31.72-14.22L34.89-4.33L38.06-14.22L42.57-14.22L42.57 0L39.13 0L39.13-3.32L39.46-10.12L36.03 0L33.76 0L30.31-10.13L30.64-3.32L30.64 0L27.22 0L27.22-14.22ZM50.36-4.82L48.17-4.82L48.17 0L44.75 0L44.75-14.22L50.42-14.22Q52.05-14.22 53.31-13.62Q54.56-13.02 55.25-11.91Q55.94-10.80 55.94-9.39L55.94-9.39Q55.94-7.31 54.45-6.07Q52.96-4.82 50.36-4.82L50.36-4.82ZM48.17-11.57L48.17-7.47L50.42-7.47Q51.42-7.47 51.94-7.97Q52.46-8.47 52.46-9.38L52.46-9.38Q52.46-10.37 51.92-10.97Q51.39-11.56 50.46-11.57L50.46-11.57L48.17-11.57ZM65.49-14.22L68.92-14.22L68.92-4.91Q68.92-3.33 68.24-2.17Q67.57-1.02 66.31-0.41Q65.05 0.20 63.33 0.20L63.33 0.20Q60.73 0.20 59.24-1.15Q57.74-2.50 57.71-4.84L57.71-4.84L57.71-14.22L61.16-14.22L61.16-4.78Q61.22-2.44 63.33-2.44L63.33-2.44Q64.39-2.44 64.94-3.03Q65.49-3.61 65.49-4.93L65.49-4.93L65.49-14.22ZM78.85 0L76.34-5.02L74.48-5.02L74.48 0L71.05 0L71.05-14.22L76.65-14.22Q79.18-14.22 80.61-13.10Q82.03-11.97 82.03-9.92L82.03-9.92Q82.03-8.44 81.43-7.46Q80.83-6.48 79.55-5.88L79.55-5.88L82.52-0.15L82.52 0L78.85 0ZM74.48-11.57L74.48-7.67L76.65-7.67Q77.63-7.67 78.12-8.18Q78.61-8.69 78.61-9.61Q78.61-10.53 78.12-11.05Q77.62-11.57 76.65-11.57L76.65-11.57L74.48-11.57ZM95.98-14.22L95.98 0L92.57 0L87.53-8.85L87.53 0L84.10 0L84.10-14.22L87.53-14.22L92.56-5.37L92.56-14.22L95.98-14.22ZM107.23 0L106.40-2.66L101.70-2.66L100.88 0L97.22 0L102.43-14.22L105.65-14.22L110.91 0L107.23 0ZM104.04-10.23L102.52-5.30L105.58-5.30L104.04-10.23Z"></path></g></g></svg>
